<?xml version="1.0" standalone="no"?>
<!DOCTYPE svg PUBLIC "-//W3C//DTD SVG 20010904//EN"
 "http://www.w3.org/TR/2001/REC-SVG-20010904/DTD/svg10.dtd">
<svg version="1.0" xmlns="http://www.w3.org/2000/svg"
 width="250.000000pt" height="250.000000pt" viewBox="0 0 250.000000 250.000000"
 preserveAspectRatio="xMidYMid meet">
<metadata>
Created by potrace 1.14, written by Peter Selinger 2001-2017
</metadata>
<g transform="translate(0.000000,250.000000) scale(0.100000,-0.100000)"
fill="#000000" stroke="none">
<path d="M1235 2486 c-49 -55 -95 -116 -95 -125 0 -6 -3 -11 -7 -11 -10 0 -47
-62 -45 -72 1 -5 -3 -8 -8 -8 -6 0 -14 -10 -19 -23 -5 -12 -23 -46 -40 -75
-17 -28 -28 -52 -26 -52 3 0 -2 -11 -11 -24 -8 -14 -16 -29 -16 -33 0 -4 -5
-19 -11 -33 -5 -14 -11 -30 -13 -37 -9 -44 -20 -44 -56 -1 -57 69 -137 143
-216 198 -40 28 -72 49 -72 46 0 -3 -20 6 -45 19 -41 23 -45 24 -53 8 -29 -54
-46 -277 -29 -373 13 -71 27 -136 36 -167 5 -18 8 -33 6 -33 -3 0 -21 10 -42
21 -144 81 -201 108 -205 97 -5 -14 -3 -175 2 -265 2 -29 8 -53 12 -53 5 0 7
-4 3 -9 -7 -12 23 -162 36 -177 5 -6 6 -13 3 -16 -7 -8 25 -84 62 -148 28 -47
134 -169 134 -154 0 3 10 -5 22 -16 12 -11 45 -32 73 -45 52 -25 50 -27 -25
-27 -93 1 -143 -80 -95 -154 18 -27 60 -48 86 -41 25 7 41 -7 46 -39 4 -30 5
-33 18 -99 13 -69 15 -79 22 -115 3 -19 6 -41 6 -47 0 -7 4 -13 9 -13 5 0 7
-4 4 -9 -3 -5 -1 -31 4 -57 6 -27 13 -64 16 -83 15 -89 74 -167 164 -216 32
-18 62 -20 358 -23 285 -3 329 -1 375 14 28 9 57 22 63 28 6 6 24 21 41 34 33
25 81 111 88 158 2 16 7 40 10 54 3 14 8 39 10 55 3 17 7 41 10 55 3 14 8 40
11 59 3 18 8 43 10 55 2 11 7 37 10 56 8 48 12 65 14 65 1 0 3 14 4 30 1 30 3
32 58 34 15 0 42 14 60 30 26 23 32 36 32 70 0 58 -35 92 -99 97 -48 4 -70 13
-48 21 43 15 146 100 199 165 67 80 121 222 140 363 1 11 3 20 4 20 9 0 20
309 12 338 -5 19 8 24 -189 -84 -28 -16 -54 -29 -57 -29 -3 0 -1 12 5 27 42
112 55 352 25 485 l-17 76 -47 -20 c-26 -12 -50 -26 -54 -32 -4 -6 -8 -7 -8
-3 0 5 -23 -7 -50 -27 -28 -20 -52 -36 -55 -36 -3 0 -28 -22 -57 -50 -29 -27
-56 -50 -60 -50 -5 0 -8 -5 -8 -10 0 -6 -12 -23 -28 -38 -15 -15 -35 -38 -45
-52 -11 -16 -17 -19 -17 -9 0 8 -16 53 -36 99 -19 47 -36 89 -37 95 -1 5 -5
14 -10 20 -4 5 -33 53 -64 105 -31 52 -59 97 -62 100 -3 3 -25 30 -49 62 -47
61 -62 72 -77 54z"/>
</g>
</svg>
